<svg width="50" height="50" viewBox="0 0 50 50" fill="none" xmlns="http://www.w3.org/2000/svg">
<path d="M3 16.0805L47 16.0805" stroke="black" stroke-width="2" stroke-linecap="round"/>
<path d="M8.75642 45.3629L3.8148 19.5805H46.1852L41.2436 45.3629C41.1081 46.0696 40.4899 46.5805 39.7704 46.5805H10.2296C9.51006 46.5805 8.89187 46.0696 8.75642 45.3629Z" fill="black" stroke="black" stroke-width="3"/>
<ellipse cx="25" cy="25.0805" rx="2" ry="3" fill="white"/>
<ellipse cx="22" cy="33.0805" rx="2" ry="3" fill="white"/>
<ellipse cx="25" cy="41.0805" rx="2" ry="3" fill="white"/>
<ellipse cx="31" cy="25.0805" rx="2" ry="3" fill="white"/>
<ellipse cx="28" cy="33.0805" rx="2" ry="3" fill="white"/>
<ellipse cx="31" cy="41.0805" rx="2" ry="3" fill="white"/>
<ellipse cx="19" cy="25.0805" rx="2" ry="3" fill="white"/>
<ellipse cx="16" cy="33.0805" rx="2" ry="3" fill="white"/>
<ellipse cx="19" cy="41.0805" rx="2" ry="3" fill="white"/>
<ellipse cx="37" cy="25.0805" rx="2" ry="3" fill="white"/>
<ellipse cx="34" cy="33.0805" rx="2" ry="3" fill="white"/>
<ellipse cx="37" cy="41.0805" rx="2" ry="3" fill="white"/>
<ellipse cx="43" cy="25.0805" rx="2" ry="3" fill="white"/>
<ellipse cx="40" cy="33.0805" rx="2" ry="3" fill="white"/>
<ellipse cx="13" cy="25.0805" rx="2" ry="3" fill="white"/>
<ellipse cx="10" cy="33.0805" rx="2" ry="3" fill="white"/>
<ellipse cx="13" cy="41.0805" rx="2" ry="3" fill="white"/>
<ellipse cx="7" cy="25.0805" rx="2" ry="3" fill="white"/>
<path d="M46.9999 13.5805H2.99993C2.93468 9.85187 6.38818 8.91597 17.9999 9.08048C17.9999 1.08049 30.4999 4.0805 30.4999 7.58048C33 6.58051 37.4999 8.58051 37.4999 11.0805C46 10.5805 46.9999 11.0805 46.9999 13.5805Z" fill="#0066FF" stroke="#0066FF" stroke-linecap="round" stroke-linejoin="round"/>
</svg>
