<svg width="50" height="50" viewBox="0 0 50 50" fill="none" xmlns="http://www.w3.org/2000/svg">
<rect x="5" y="7" width="40" height="39" rx="3" fill="black"/>
<path d="M25.2027 12.7081L28.5554 17.3537C28.6747 17.519 28.5566 17.75 28.3527 17.75H21.6473C21.4434 17.75 21.3253 17.519 21.4446 17.3537L24.7973 12.7081C24.8971 12.5698 25.1029 12.5698 25.2027 12.7081Z" fill="#0066FF" stroke="white" stroke-width="0.5"/>
<path d="M19.5336 40.7752L22.439 18.5H27.561L30.4664 40.7752L25 44.875L19.5336 40.7752Z" fill="#0066FF" stroke="white"/>
<rect x="20" y="9" width="10" height="5" fill="white"/>
<rect x="17" y="6" width="16" height="4" fill="#0066FF"/>
<path d="M25.0668 12.4741L33.1287 5.58475C33.2483 5.48251 33.4315 5.51491 33.5088 5.65198L34.4887 7.38915C34.5326 7.46705 34.5316 7.5625 34.486 7.63944L28.7346 17.3418C28.6428 17.4967 28.4224 17.5067 28.3169 17.3608L25.0267 12.8106C24.9504 12.7051 24.9678 12.5587 25.0668 12.4741Z" fill="#0066FF" stroke="white" stroke-width="0.5"/>
<path d="M24.9162 12.519L16.8584 5.62493C16.7389 5.52262 16.5556 5.55492 16.4782 5.69194L15.4974 7.42852C15.4534 7.5064 15.4544 7.60185 15.4999 7.67882L21.2455 17.3846C21.3372 17.5395 21.5576 17.5497 21.6632 17.4039L24.9561 12.8556C25.0325 12.7501 25.0151 12.6037 24.9162 12.519Z" fill="#0066FF" stroke="white" stroke-width="0.5"/>
<rect x="31" y="23" width="12" height="1" rx="0.5" fill="white"/>
</svg>
