<svg width="50" height="50" viewBox="0 0 50 50" fill="none" xmlns="http://www.w3.org/2000/svg">
<rect x="5" y="3" width="40" height="44" rx="3" fill="black"/>
<circle cx="33" cy="8" r="2" fill="white"/>
<circle cx="40" cy="8" r="2" fill="white"/>
<circle cx="25" cy="27" r="15" fill="white"/>
<circle cx="25" cy="27" r="13" fill="#0066FF"/>
<path d="M36 27C36 24.0826 34.8411 21.2847 32.7782 19.2218C30.7153 17.1589 27.9174 16 25 16C22.0826 16 19.2847 17.1589 17.2218 19.2218C15.1589 21.2847 14 24.0826 14 27C14 27 17.3169 26 19.5 26C21.6831 26 22.8236 27.1707 25 27C27.2785 26.8213 28.2145 25 30.5 25C32.7855 25 36 27 36 27Z" fill="white"/>
</svg>
